Jump_normalized_Motion_pl01
version=1
nRows=25
nColumns=43
inDegrees=yes
endheader
time		pelvis_tilt		pelvis_list		pelvis_rotation		pelvis_tx		pelvis_ty		pelvis_tz		hip_flexion_r		hip_adduction_r		hip_rotation_r		knee_angle_r		ankle_angle_r		subtalar_angle_r		mtp_angle_r		hip_flexion_l		hip_adduction_l		hip_rotation_l		knee_angle_l		ankle_angle_l		subtalar_angle_l		mtp_angle_l		lumbar_extension		lumbar_bending		lumbar_rotation		neck_flexion		neck_lateral_bending		neck_rotation		arm_flex_r		arm_add_r		arm_rot_r		elbow_flex_r		pro_sup_r		wrist_flex_r		wrist_dev_r		hand_finger_flex_r		arm_flex_l		arm_add_l		arm_rot_l		elbow_flex_l		pro_sup_l		wrist_flex_l		wrist_dev_l		hand_finger_flex_l		
0.258333		-0.481677		-19.390565		90.635552		-0.004043		1.909810		1.637444		46.932735		-4.869142		7.123509		-105.794854		18.838937		3.450336		13.324607		45.782838		0.058556		4.013768		-105.582854		24.178700		-12.817660		16.507479		-35.896705		-1.012519		0.596602		19.731926		1.844166		-2.518704		139.625282		-4.032347		35.280800		49.652591		66.922211		-30.982905		-4.864239		23.324940		133.235225		-0.692940		19.839771		57.795600		107.580802		-27.378119		11.166450		57.615225		
0.261641		-0.464079		-19.379767		90.548427		-0.004277		1.912259		1.631050		46.369111		-4.931001		7.115275		-105.244809		17.928144		3.702195		13.215574		45.145882		-0.046852		3.977961		-105.072550		23.405798		-12.497540		16.490998		-35.562798		-1.027038		0.778285		18.944568		1.854067		-2.542826		139.408623		-4.071551		35.287623		49.626738		66.917606		-31.034489		-4.868549		23.270459		132.955263		-0.715327		19.875100		57.843912		107.555545		-27.407052		11.193575		57.596698		
0.264949		-0.439411		-18.667348		90.308177		-0.004225		1.916017		1.623706		44.970269		-4.817911		7.214494		-104.555217		16.673156		3.769919		13.151100		43.596855		-0.277370		3.828612		-104.428549		22.674387		-12.327373		16.807823		-35.976973		-1.111336		1.048966		18.087524		1.770576		-2.616358		139.091133		-4.022294		35.146954		49.650917		66.958205		-31.274805		-5.070044		22.913494		132.579498		-0.626945		19.618092		57.891176		107.544011		-27.699102		11.159664		57.387644		
0.268258		-0.451981		-18.361736		90.197359		-0.004516		1.918903		1.616895		44.122426		-4.945953		7.189626		-103.997847		15.539661		4.026006		13.093312		42.641237		-0.319861		3.803718		-103.904851		21.770866		-11.996303		17.018509		-35.969599		-1.153054		1.226856		17.375339		1.848585		-2.672774		138.901554		-4.091698		35.259895		49.611202		66.965780		-31.285372		-5.062369		22.720674		132.286174		-0.659719		19.677907		57.931606		107.573124		-27.717306		11.138472		57.341355		
0.271566		-0.466005		-17.865095		90.091273		-0.004764		1.922148		1.609828		43.050625		-5.039259		7.201461		-103.405655		14.340413		4.204564		13.088874		41.463487		-0.397204		3.725485		-103.329635		20.873692		-11.734517		17.396833		-36.181703		-1.200950		1.421765		16.681858		1.872314		-2.735244		138.686999		-4.163350		35.300748		49.598654		66.966525		-31.347404		-5.103481		22.402702		131.974969		-0.618474		19.650579		57.960329		107.609736		-27.774592		11.088260		57.259019		
0.274874		-0.466464		-17.648542		89.996848		-0.004954		1.924772		1.603022		42.372918		-5.135007		7.192359		-102.893799		13.012159		4.515931		12.986070		40.699505		-0.443129		3.734646		-102.890049		19.799925		-11.336890		17.493843		-36.047340		-1.241460		1.552601		15.838433		1.909609		-2.786667		138.378997		-4.258994		35.409529		49.629137		66.969918		-31.359204		-5.084257		22.281420		131.587175		-0.653601		19.712190		58.023776		107.612060		-27.757017		11.089519		57.264356		
0.278182		-0.466901		-17.154771		89.876120		-0.005102		1.927901		1.595901		41.390983		-5.203717		7.196476		-102.337595		11.580791		4.598000		12.956809		39.605955		-0.537166		3.656802		-102.385985		18.719022		-11.092343		17.769861		-36.235690		-1.298734		1.759639		15.064036		1.931853		-2.863791		138.076980		-4.352090		35.452858		49.667267		67.003116		-31.456062		-5.121826		22.009102		131.193765		-0.606605		19.667976		58.067868		107.638940		-27.793476		11.051422		57.239908		
0.281490		-0.463205		-16.451290		89.704841		-0.005152		1.931370		1.588587		40.186964		-5.236807		7.192218		-101.756483		10.106296		4.516160		13.045126		38.284382		-0.652813		3.545687		-101.864852		17.545132		-10.951339		18.285150		-36.673682		-1.385315		1.975720		14.384021		1.954910		-2.962796		137.824900		-4.452437		35.569834		49.703804		67.073075		-31.521593		-5.163808		21.595698		130.847957		-0.557577		19.622509		58.064241		107.717906		-27.827598		10.977796		57.200417		
0.284798		-0.462763		-16.203022		89.634501		-0.005422		1.933916		1.581755		39.600056		-5.393603		7.129717		-101.311541		8.638715		4.780672		12.960529		37.619580		-0.722609		3.493911		-101.500564		16.224227		-10.544739		18.390007		-36.586545		-1.406266		2.160379		13.562848		2.001872		-3.011910		137.516926		-4.604915		35.736554		49.721893		67.095133		-31.478371		-5.129954		21.476258		130.427927		-0.605939		19.771672		58.127041		107.740948		-27.774226		10.993825		57.231630		
0.288106		-0.442433		-15.378821		89.448029		-0.005400		1.937576		1.574360		38.343958		-5.389874		7.108821		-100.715323		6.782986		4.345963		13.159080		36.231035		-0.868751		3.327706		-100.981197		14.786496		-10.746176		19.093012		-37.177335		-1.497259		2.416702		12.904833		1.996987		-3.147089		137.247772		-4.716010		35.843166		49.774928		67.187934		-31.501177		-5.229733		20.920930		130.062610		-0.509168		19.661432		58.110274		107.843145		-27.850535		10.976598		57.184076		
0.291414		-0.443146		-15.157200		89.389794		-0.005643		1.939970		1.567622		37.862745		-5.550467		7.040371		-100.298449		5.261115		4.627552		13.072912		35.710786		-0.959749		3.262270		-100.674293		13.289972		-10.302536		19.158078		-37.079469		-1.518715		2.548625		12.090170		2.077296		-3.220757		136.954381		-4.873625		36.086399		49.760901		67.218756		-31.403634		-5.174784		20.829227		129.653816		-0.598421		19.891339		58.167927		107.876851		-27.775637		11.023046		57.223525		
0.294722		-0.439168		-14.816907		89.286659		-0.005741		1.942598		1.560815		37.293673		-5.643129		6.992804		-99.847404		3.429721		4.703562		12.960321		35.072753		-1.052013		3.194733		-100.349133		11.678333		-10.037521		19.220363		-37.125354		-1.569908		2.681281		11.267120		2.138150		-3.342569		136.623280		-5.002270		36.285772		49.787405		67.265662		-31.355445		-5.183612		20.691066		129.236962		-0.647351		20.026846		58.208419		107.897517		-27.759087		11.092593		57.234278		
0.298030		-0.417637		-14.043866		89.099490		-0.005701		1.946071		1.553680		36.246626		-5.627512		6.940530		-99.281396		1.189763		3.783685		13.158233		33.908430		-1.212277		2.961877		-99.872840		9.834671		-10.659581		19.724342		-37.714854		-1.662656		2.938810		10.729725		2.162332		-3.557420		136.409144		-5.135478		36.487418		49.781256		67.404912		-31.296015		-5.342502		20.168736		128.938444		-0.608685		20.080347		58.179262		107.965221		-27.874852		11.237115		57.132591		
0.301338		-0.413475		-13.782203		89.030485		-0.005891		1.948383		1.547088		35.842243		-5.765864		6.859140		-98.882283		-0.553828		3.978155		13.077785		33.493325		-1.334260		2.863640		-99.600749		8.055231		-10.253783		19.724843		-37.696922		-1.690764		3.034304		9.917481		2.302129		-3.695724		136.133374		-5.278122		36.788156		49.723627		67.456619		-31.178916		-5.280622		20.077071		128.550350		-0.738139		20.370505		58.223168		107.981064		-27.799837		11.316370		57.155425		
0.304646		-0.388934		-13.256773		88.870995		-0.005843		1.951309		1.540379		35.194249		-5.732509		6.806630		-98.375343		-3.035812		3.048719		13.251052		32.755593		-1.459501		2.684520		-99.208406		5.930563		-10.897739		19.934914		-38.038998		-1.767294		3.233866		9.371538		2.316781		-3.891002		135.901936		-5.418887		37.047914		49.728046		67.610809		-31.086323		-5.388650		19.698327		128.264940		-0.777952		20.562523		58.195519		107.925370		-27.867212		11.489975		57.035273		
0.307955		-0.380753		-12.978173		88.805535		-0.006005		1.953543		1.533918		34.844432		-5.864026		6.691272		-97.997476		-4.790508		3.047294		13.249514		32.412621		-1.631059		2.506134		-98.944624		3.977480		-10.660840		19.905202		-38.081157		-1.792004		3.344420		8.622966		2.466283		-4.003042		135.674787		-5.555512		37.379863		49.631226		67.689130		-30.970327		-5.311845		19.588218		127.901363		-0.915614		20.883264		58.240865		107.909461		-27.795243		11.578154		57.033325		
0.311263		-0.356115		-12.631211		88.668865		-0.005908		1.955998		1.527573		34.499800		-5.820136		6.632988		-97.575102		-7.136460		2.355542		13.426524		32.010028		-1.734532		2.384753		-98.622552		1.559393		-11.253196		19.865922		-38.247906		-1.862332		3.480119		8.038945		2.432964		-4.051795		135.450474		-5.703416		37.731703		49.624411		67.840718		-30.886905		-5.287166		19.372417		127.609843		-1.030588		21.175545		58.243021		107.784241		-27.764829		11.712801		56.944739		
0.314571		-0.340076		-12.323660		88.562264		-0.005881		1.958290		1.521328		34.210588		-5.810545		6.556051		-97.197878		-9.056086		1.806407		13.722207		31.702213		-1.850624		2.230008		-98.321296		-0.814426		-11.730902		19.841201		-38.380268		-1.914396		3.599688		7.450558		2.423211		-4.056981		135.251099		-5.847449		38.111080		49.575906		67.978259		-30.784200		-5.205220		19.174688		127.301222		-1.177780		21.503552		58.260224		107.651958		-27.704996		11.833497		56.863623		
0.317879		-0.330132		-12.074315		88.445960		-0.005940		1.960433		1.515306		34.066785		-5.877029		6.382494		-96.844544		-10.934989		1.116076		14.350574		31.537484		-1.957227		1.991803		-98.067943		-3.443483		-12.836562		19.851785		-38.505225		-1.960642		3.740112		7.017837		2.342245		-3.973740		135.109595		-5.971667		38.484636		49.532045		68.130527		-30.729771		-5.077892		18.911506		127.039244		-1.339285		21.827106		58.325297		107.404493		-27.616207		11.952817		56.735611		
0.321187		-0.335449		-11.891055		88.354247		-0.005945		1.962320		1.509340		34.003021		-5.964714		6.228430		-96.585592		-11.984638		0.995597		14.793796		31.494988		-2.056147		1.828608		-97.870937		-5.810397		-13.252295		19.801233		-38.536044		-2.012690		3.822429		6.441878		2.269867		-3.901668		134.913771		-6.113680		38.889867		49.514061		68.239175		-30.659969		-4.919123		18.783510		126.738130		-1.522297		22.186578		58.366364		107.258800		-27.477435		12.041634		56.685041		
0.324495		-0.343644		-11.721150		88.262483		-0.006014		1.964118		1.503450		33.988990		-6.038287		6.083077		-96.385890		-12.710525		0.816477		15.313838		31.495638		-2.130119		1.667330		-97.679293		-8.074187		-13.788747		19.778628		-38.570377		-2.059647		3.899793		5.945915		2.199692		-3.838149		134.719898		-6.251633		39.298416		49.502661		68.354497		-30.602395		-4.760601		18.641543		126.431991		-1.719466		22.543359		58.423696		107.102989		-27.336021		12.126747		56.624582		
0.327803		-0.377374		-11.635492		88.210634		-0.006283		1.965718		1.497784		34.103790		-6.187639		5.910249		-96.237397		-12.962080		0.762067		16.097332		31.670407		-2.125655		1.481912		-97.536849		-10.408256		-15.000688		19.852246		-38.560167		-2.076367		3.948571		5.595699		2.097063		-3.779399		134.578791		-6.377641		39.736483		49.489901		68.537346		-30.643775		-4.570376		18.369933		126.158106		-1.943755		22.908057		58.499660		106.858074		-27.170540		12.220731		56.491106		
0.331111		-0.385839		-11.477078		88.109460		-0.006333		1.967294		1.492015		34.159613		-6.278017		5.734327		-96.159283		-12.695187		0.778842		16.308374		31.749389		-2.212112		1.346863		-97.466559		-11.733506		-14.877294		19.815248		-38.609312		-2.132110		4.007823		5.113837		2.084899		-3.773454		134.369448		-6.524071		40.120760		49.502238		68.644063		-30.563282		-4.450782		18.328372		125.848087		-2.163305		23.264025		58.587081		106.835398		-27.026165		12.253535		56.497071		
0.334419		-0.390221		-11.367861		88.048157		-0.006551		1.968714		1.486420		34.287962		-6.385462		5.533805		-96.123701		-12.118989		0.786413		16.495467		31.938426		-2.240409		1.224399		-97.453933		-12.838895		-15.170083		19.764641		-38.636684		-2.136113		4.052715		4.748268		2.024230		-3.758612		134.200044		-6.654879		40.550282		49.507134		68.824772		-30.571226		-4.318622		18.225565		125.558194		-2.415910		23.637976		58.682880		106.783549		-26.862826		12.279567		56.486020		
0.337727		-0.390306		-11.232478		88.028011		-0.006799		1.970276		1.481165		34.465907		-6.416374		5.430917		-96.089968		-11.886604		0.777008		16.530473		32.104620		-2.223569		1.165719		-97.467468		-13.046218		-15.293424		19.748227		-38.798804		-2.130047		4.059247		4.655748		1.998043		-3.754266		134.083022		-6.716829		40.705757		49.481374		68.889862		-30.583796		-4.269730		18.191282		125.367699		-2.522530		23.781425		58.678762		106.768663		-26.803385		12.291974		56.486098		
